<?xml version="1.0" standalone="no"?>
<!DOCTYPE svg PUBLIC "-//W3C//DTD SVG 20010904//EN"
 "http://www.w3.org/TR/2001/REC-SVG-20010904/DTD/svg10.dtd">
<svg version="1.0" xmlns="http://www.w3.org/2000/svg"
 width="712.000000pt" height="753.000000pt" viewBox="0 0 712.000000 753.000000"
 preserveAspectRatio="xMidYMid meet">

<g transform="translate(0.000000,753.000000) scale(0.100000,-0.100000)"
fill="#a68868" stroke="none">
<path d="M3255 7334 c-126 -74 -392 -225 -590 -336 -198 -110 -369 -210 -380
-220 -19 -18 -20 -35 -25 -546 l-5 -527 -485 263 c-301 163 -493 262 -505 259
-15 -2 -1021 -573 -1153 -654 -26 -16 -29 -41 -4 -50 9 -4 774 -417 1700 -920
926 -502 1687 -913 1691 -913 15 0 1194 618 1210 634 14 15 14 18 -2 33 -10
10 -63 43 -120 73 l-102 55 -3 524 c-2 468 -1 523 13 517 18 -6 1159 -626
1190 -645 18 -11 87 22 648 315 670 350 667 348 621 395 -11 10 -775 428
-1699 929 -924 501 -1692 920 -1707 931 -15 10 -35 19 -45 18 -10 -1 -121 -61
-248 -135z m-357 -934 c343 -194 567 -327 559 -332 -6 -4 -208 -126 -447 -272
l-435 -265 -85 46 c-47 25 -107 58 -135 74 l-50 28 3 526 c1 290 6 525 10 523
5 -2 266 -149 580 -328z m1528 -1877 c-3 -3 -924 493 -938 506 -4 4 205 118
465 253 l472 247 3 -501 c1 -276 1 -503 -2 -505z"/>
<path d="M100 5471 c-7 -13 -10 -586 -10 -1780 0 -1615 1 -1762 16 -1788 13
-22 130 -89 517 -298 275 -148 515 -280 533 -292 25 -16 35 -19 43 -10 5 7
216 151 469 321 l460 309 39 -15 c21 -8 49 -15 63 -14 14 1 84 38 156 84 72
45 134 82 138 82 3 0 6 -335 6 -743 0 -696 1 -745 17 -759 44 -38 887 -539
901 -536 16 3 17 108 19 1363 l2 1360 -455 253 c-371 207 -458 251 -470 242
-11 -10 -14 -39 -14 -124 l-1 -111 -141 -84 c-78 -46 -147 -84 -153 -84 -5 0
-229 119 -497 264 -361 196 -484 267 -475 275 7 6 128 79 269 162 l258 152
821 -451 c734 -403 824 -450 845 -440 l24 11 0 422 c0 233 -4 428 -8 433 -10
16 -3330 1815 -3347 1815 -8 0 -19 -9 -25 -19z m1432 -1629 c109 -59 198 -110
198 -113 0 -6 -506 -309 -516 -309 -2 0 -4 135 -4 300 l0 300 63 -35 c34 -19
151 -83 259 -143z m998 -1294 l0 -413 -140 -87 -140 -87 2 416 3 417 135 82
c74 45 136 83 138 83 1 1 2 -185 2 -411z m-888 -348 c232 -126 423 -234 423
-239 0 -7 -611 -425 -827 -565 l-28 -18 0 526 c0 289 2 526 4 526 2 0 195
-103 428 -230z"/>
<path d="M6858 5442 c-51 -27 -329 -172 -616 -322 l-524 -273 -246 -498 c-136
-274 -249 -498 -252 -498 -3 0 -108 98 -234 219 -125 121 -233 220 -239 220
-12 0 -1129 -579 -1189 -617 l-38 -23 0 -1804 c0 -1435 3 -1806 13 -1814 9 -8
173 73 617 305 333 174 608 321 612 327 4 6 8 228 8 494 l0 484 33 -20 c68
-42 903 -456 913 -454 7 1 289 147 628 324 l616 322 0 1838 c0 1011 -2 1838
-5 1838 -3 0 -46 -22 -97 -48z m-1183 -4190 c-3 -10 -137 54 -455 214 l-450
228 0 288 c0 158 2 288 4 288 2 0 91 -52 196 -115 125 -75 203 -115 221 -115
37 0 28 -14 280 461 l204 387 3 -812 c1 -446 0 -817 -3 -824z m-618 914 c4 -6
-4 -4 -17 5 -14 9 -80 48 -147 89 l-123 73 0 54 0 55 140 -132 c77 -73 144
-138 147 -144z"/>
</g>
</svg>
